<?xml version="1.0" standalone="no"?>
<!DOCTYPE svg PUBLIC "-//W3C//DTD SVG 20010904//EN"
 "http://www.w3.org/TR/2001/REC-SVG-20010904/DTD/svg10.dtd">
<svg version="1.0" xmlns="http://www.w3.org/2000/svg"
 width="1000.000000pt" height="1000.000000pt" viewBox="0 0 1000.000000 1000.000000"
 preserveAspectRatio="xMidYMid meet">
<metadata>
Created by potrace 1.11, written by Peter Selinger 2001-2013
</metadata>
<g transform="translate(0.000000,1000.000000) scale(0.100000,-0.100000)"
fill="#000000" stroke="none">
<path d="M4817 9304 c-224 -54 -441 -271 -482 -481 -3 -15 -8 -44 -12 -63 -9
-50 -9 -167 0 -220 29 -155 142 -330 269 -418 96 -66 232 -117 331 -124 17 -2
27 -8 27 -18 0 -13 -255 -779 -881 -2647 -81 -244 -154 -452 -162 -463 -14
-20 -15 -19 -41 12 -14 18 -86 95 -159 171 -160 169 -163 172 -357 376 -85 90
-166 175 -180 190 -45 48 -332 351 -436 460 -56 58 -125 131 -154 161 -28 30
-73 78 -99 105 -26 28 -57 64 -69 81 l-21 31 30 41 c17 23 44 81 61 129 48
138 42 289 -15 413 -43 94 -145 210 -223 256 -154 90 -365 104 -520 34 -153
-70 -275 -208 -319 -361 -22 -77 -26 -219 -8 -288 32 -123 116 -247 225 -331
30 -23 145 -79 174 -84 76 -14 114 -18 177 -17 40 0 81 2 91 3 22 3 30 -17 70
-191 14 -58 43 -180 64 -271 48 -200 112 -469 117 -490 2 -8 17 -76 35 -150
18 -74 47 -198 65 -275 18 -77 45 -189 60 -250 15 -60 29 -121 31 -135 3 -14
7 -33 10 -42 3 -9 6 -25 8 -35 2 -10 9 -36 14 -58 6 -22 13 -51 16 -65 2 -14
25 -113 51 -220 26 -107 48 -202 50 -210 1 -8 8 -35 15 -60 7 -25 14 -56 16
-68 3 -13 20 -85 38 -160 18 -76 36 -154 40 -174 l7 -38 -28 12 c-15 7 -32 15
-38 19 -5 3 -35 20 -65 36 -30 17 -138 77 -240 133 -102 56 -214 118 -250 138
-36 19 -69 38 -75 42 -5 4 -46 26 -90 50 -44 24 -126 69 -182 101 -57 33 -105
59 -108 59 -3 0 -22 10 -43 23 -20 13 -75 44 -122 69 -47 25 -139 76 -205 113
-66 37 -168 94 -227 127 -59 33 -111 65 -115 71 -4 7 -6 64 -4 127 3 133 -12
194 -76 290 -142 215 -399 285 -633 173 -67 -32 -186 -149 -217 -214 -55 -112
-66 -260 -29 -383 31 -102 133 -220 239 -277 113 -60 255 -75 367 -38 90 29
58 52 290 -201 58 -62 112 -121 120 -130 8 -9 53 -58 100 -109 47 -51 101
-110 120 -130 19 -21 67 -73 105 -116 39 -43 75 -83 80 -89 6 -6 66 -72 135
-146 68 -74 151 -164 184 -201 107 -115 260 -281 277 -300 9 -10 56 -62 105
-116 49 -53 98 -107 109 -119 18 -20 176 -192 200 -218 86 -93 157 -170 235
-256 276 -306 541 -537 845 -737 380 -251 777 -409 1175 -467 103 -15 478 -19
552 -6 24 4 66 11 93 14 361 42 901 286 1293 583 275 208 453 379 793 757 24
28 51 57 59 66 8 9 58 63 110 120 52 57 106 116 120 130 14 14 43 46 64 71 22
24 83 91 135 148 53 57 107 116 121 131 14 15 70 76 125 135 55 59 108 117
118 129 17 20 174 190 207 226 8 9 60 65 115 125 55 60 109 119 120 131 11 12
58 63 105 114 47 51 90 98 95 104 6 6 83 90 173 188 90 97 170 179 178 182 9
3 46 -3 83 -14 174 -54 370 3 501 147 83 91 121 185 126 308 4 143 -41 259
-141 361 -61 62 -145 112 -222 133 -158 43 -334 -1 -454 -112 -86 -79 -129
-152 -154 -260 -14 -59 -14 -193 0 -229 5 -12 -9 -27 -54 -57 -33 -23 -63 -41
-66 -41 -3 0 -33 -18 -65 -40 -32 -22 -61 -40 -64 -40 -3 0 -30 -16 -60 -35
-30 -19 -57 -35 -59 -35 -2 0 -63 -36 -136 -80 -73 -44 -134 -80 -136 -80 -2
0 -58 -34 -125 -75 -67 -41 -123 -75 -125 -75 -3 0 -322 -189 -405 -240 -8 -5
-94 -56 -190 -113 -96 -57 -210 -125 -252 -150 -69 -41 -78 -44 -78 -27 0 11
20 102 44 203 25 100 54 225 66 277 12 52 25 106 30 120 5 14 12 39 14 55 3
17 21 95 40 175 161 683 171 724 182 777 2 12 9 34 14 48 5 14 7 25 5 25 -2 0
0 11 5 26 6 14 12 39 15 57 4 18 17 77 31 132 14 55 28 109 30 120 2 11 15 67
28 125 14 58 42 173 61 255 35 145 95 399 99 420 1 6 5 19 9 30 3 11 8 32 11
48 12 69 7 67 124 66 195 0 299 39 423 161 61 60 115 134 124 170 1 3 7 17 13
31 38 92 46 247 18 344 -87 298 -368 470 -668 409 -149 -31 -297 -143 -377
-286 -98 -176 -86 -410 32 -586 l29 -43 -43 -47 c-23 -26 -50 -54 -58 -63 -9
-8 -77 -80 -151 -159 -74 -78 -160 -168 -190 -200 -30 -32 -114 -120 -187
-196 -72 -77 -151 -160 -175 -185 -24 -25 -106 -112 -183 -193 -179 -190 -202
-214 -370 -391 -77 -81 -143 -152 -147 -158 -4 -6 -10 -8 -14 -5 -5 6 -257
740 -268 783 -2 6 -6 17 -9 25 -3 8 -70 206 -148 440 -78 234 -241 720 -361
1080 -121 360 -221 660 -222 665 -1 6 -4 15 -8 20 -7 11 -38 128 -35 131 1 1
28 4 60 8 86 9 203 52 278 101 64 44 153 126 173 162 5 10 12 20 16 23 24 17
89 179 105 261 12 59 6 213 -10 269 -1 3 -5 19 -10 35 -4 17 -20 55 -35 86
-79 164 -217 286 -397 351 -76 26 -317 34 -406 12z m258 -5109 c12 -22 80
-143 150 -270 71 -126 169 -302 218 -390 50 -88 105 -188 123 -223 l33 -62
-46 -88 c-25 -48 -53 -98 -63 -112 -9 -14 -33 -54 -52 -90 -78 -143 -98 -179
-160 -290 -36 -63 -80 -142 -98 -175 -18 -33 -36 -64 -40 -70 -4 -5 -21 -35
-37 -65 -58 -107 -95 -170 -102 -175 -5 -2 -14 8 -22 23 -8 14 -35 64 -62 110
-26 46 -63 112 -81 145 -19 34 -51 94 -73 132 -22 39 -55 97 -73 130 -18 33
-82 146 -141 251 -59 105 -117 210 -128 233 l-21 41 26 52 c15 29 43 82 64
118 20 36 51 90 68 120 16 30 67 120 111 199 45 78 81 144 81 146 0 1 25 47
56 101 31 55 68 119 82 144 42 77 64 114 90 153 l25 38 25 -43 c13 -24 35 -61
47 -83z"/>
</g>
</svg>
