<?xml version="1.0" standalone="no"?>
<!DOCTYPE svg PUBLIC "-//W3C//DTD SVG 20010904//EN"
 "http://www.w3.org/TR/2001/REC-SVG-20010904/DTD/svg10.dtd">
<svg version="1.0" xmlns="http://www.w3.org/2000/svg"
 width="1001.000000pt" height="1001.000000pt" viewBox="0 0 1001.000000 1001.000000"
 preserveAspectRatio="xMidYMid meet">
<metadata>
Created by potrace 1.11, written by Peter Selinger 2001-2013
</metadata>
<g transform="translate(0.000000,1001.000000) scale(0.100000,-0.100000)"
fill="#000000" stroke="none">
<path d="M4836 9314 c-196 -43 -380 -196 -464 -385 -41 -96 -67 -281 -48 -348
3 -9 7 -33 11 -55 3 -21 17 -68 32 -105 77 -193 248 -345 448 -396 53 -13 106
-22 142 -24 12 -1 -64 -229 -719 -2176 -153 -456 -280 -834 -282 -840 -25 -98
-56 -149 -68 -116 -2 8 -157 173 -328 351 -37 39 -295 311 -351 370 -18 19
-105 111 -193 204 -89 93 -177 186 -196 207 -19 20 -99 103 -177 185 -271 286
-254 264 -235 293 9 14 19 28 23 31 23 18 65 130 85 225 12 57 4 172 -17 245
-34 119 -145 262 -251 324 -122 71 -273 97 -408 69 -210 -44 -389 -217 -439
-427 -13 -51 -16 -219 -6 -236 4 -6 9 -23 11 -38 7 -42 60 -149 96 -195 72
-93 162 -158 275 -198 64 -24 228 -35 281 -20 25 8 32 6 36 -7 6 -19 90 -371
161 -672 71 -302 82 -347 110 -465 15 -60 28 -117 30 -126 2 -8 10 -44 19 -80
59 -243 89 -369 96 -404 5 -22 27 -116 49 -210 23 -93 50 -208 61 -255 11 -47
29 -123 40 -170 11 -47 23 -95 25 -106 3 -12 21 -88 41 -170 20 -82 38 -160
40 -174 3 -14 7 -34 11 -44 5 -19 -9 -12 -192 90 -148 82 -689 381 -743 411
-37 20 -71 39 -77 43 -5 4 -41 24 -80 45 -38 21 -124 68 -190 105 -66 37 -156
86 -200 110 -44 24 -92 51 -107 61 -14 11 -29 19 -32 19 -4 0 -47 23 -97 51
-72 41 -89 54 -83 68 4 9 9 61 10 117 3 83 -1 112 -19 165 -124 354 -554 458
-817 197 -104 -103 -150 -220 -145 -366 6 -138 50 -239 148 -335 137 -135 346
-179 519 -110 l41 16 61 -64 c73 -78 152 -163 263 -285 44 -49 94 -103 110
-120 74 -79 214 -232 233 -254 12 -14 63 -69 113 -124 109 -119 113 -123 231
-251 79 -86 199 -217 231 -251 5 -6 51 -55 100 -110 50 -54 102 -111 117 -127
15 -16 58 -63 95 -105 37 -41 84 -92 103 -112 19 -19 76 -80 125 -135 50 -55
97 -106 105 -115 8 -9 60 -65 115 -125 184 -202 200 -218 244 -259 25 -23 52
-48 61 -56 86 -81 283 -238 420 -334 444 -312 887 -491 1345 -544 73 -9 379
-8 455 0 85 10 202 28 209 32 3 2 23 7 44 10 145 23 387 110 602 216 288 142
482 271 775 515 46 38 91 77 100 85 9 8 38 36 66 61 27 25 72 70 99 100 56 61
235 255 313 339 28 31 59 65 70 77 17 21 126 139 282 308 36 39 108 117 160
175 123 134 201 220 220 239 15 16 210 229 280 305 19 21 44 49 55 60 11 12
63 68 115 126 52 57 111 121 130 141 30 32 83 90 205 224 152 166 229 249 275
298 60 63 55 62 140 30 26 -10 44 -13 114 -17 134 -8 269 47 371 149 192 194
190 502 -5 694 -194 191 -496 193 -688 3 -71 -69 -106 -128 -133 -219 -26 -87
-26 -177 -3 -265 4 -13 -38 -43 -183 -129 -380 -226 -559 -332 -588 -349 -16
-10 -188 -112 -380 -227 -193 -115 -357 -212 -365 -216 -8 -4 -80 -47 -160
-96 -80 -48 -146 -87 -148 -86 -1 1 2 24 8 51 7 27 13 56 15 64 6 29 47 196
70 290 13 52 27 107 30 123 12 64 16 81 20 87 2 4 7 21 10 38 3 18 14 69 26
114 11 46 22 92 24 104 5 21 105 445 130 549 46 192 95 398 99 417 3 13 15 61
26 108 12 47 24 95 26 107 2 12 16 71 30 130 14 60 27 115 29 123 2 8 18 74
35 145 18 72 33 137 35 145 19 86 88 376 91 381 2 4 49 5 104 3 114 -4 204 12
284 53 169 87 274 227 312 418 6 29 6 144 0 187 -3 20 -16 65 -29 100 -60 166
-199 297 -367 348 -296 88 -598 -69 -706 -370 -20 -54 -28 -228 -13 -285 5
-22 11 -48 14 -57 8 -34 44 -108 73 -151 l30 -43 -50 -55 c-49 -52 -304 -322
-400 -422 -26 -27 -100 -105 -165 -174 -65 -69 -143 -151 -173 -182 -30 -32
-118 -124 -195 -206 -199 -210 -204 -216 -370 -390 -82 -86 -153 -162 -157
-168 -9 -14 6 -55 -181 503 -819 2438 -887 2639 -883 2641 0 1 15 3 31 4 70 7
136 21 170 35 11 4 36 14 55 21 50 19 157 94 203 143 184 195 237 468 138 714
-69 173 -223 317 -403 377 -70 23 -103 28 -208 31 -84 2 -148 -2 -194 -12z
m209 -5049 c77 -139 184 -331 290 -520 65 -115 132 -235 148 -265 16 -30 33
-59 37 -65 4 -5 26 -44 48 -86 36 -66 40 -78 28 -95 -7 -10 -28 -48 -46 -84
-18 -36 -39 -72 -46 -80 -6 -8 -28 -46 -49 -85 -20 -38 -46 -86 -57 -105 -11
-19 -99 -177 -196 -350 -218 -390 -196 -358 -214 -323 -8 15 -36 66 -62 113
-27 47 -61 108 -76 135 -15 28 -89 160 -165 295 -75 135 -153 274 -173 310
-20 36 -52 94 -73 130 -35 61 -36 67 -22 93 7 15 95 173 195 350 100 177 193
345 208 372 14 28 33 61 42 75 8 14 43 76 78 138 34 62 66 110 70 105 4 -4 20
-30 35 -58z"/>
</g>
</svg>
